<?xml version="1.0" encoding="UTF-8"?>
<svg id="Capa_2" data-name="Capa 2" xmlns="http://www.w3.org/2000/svg" viewBox="0 0 75.57 87.92">
  <defs>
    <style>
      .cls-1 {
        fill: #fff;
      }
    </style>
  </defs>
  <g id="Capa_6" data-name="Capa 6">
    <g>
      <path class="cls-1" d="m18.66,18.48c.51-.03.98-.08,1.45-.32.23-.12.44-.27.66-.43.15-.11.29-.23.43-.34-.46.35-.06.04.05-.03,1.21-.88,2.42-1.78,3.7-2.57,3.57-2.21,7.46-3.92,11.71-4.26,2.75-.22,5.33.08,7.96.85,3.17.92,6.26,2.25,8.74,4.37,1.85,1.58,3.16,3.1,4.23,5.26.61,1.23,1.03,2.69,1.19,4.12.2,1.73-.22,3.37,1.2,4.71.99.93,2.37.86,3.36,0,1.35-1.16,1.16-2.74.96-4.33-.23-1.84-.66-3.61-1.34-5.34-.98-2.48-2.4-4.73-4.25-6.66-3.01-3.14-6.94-5.3-11.03-6.69-7.78-2.65-16.51-1.79-23.51,2.62-1.8,1.13-3.62,2.42-5.11,3.94-.99,1.01-2,1.99-2,3.5,0,.83.74,1.66,1.6,1.6h0Z"/>
      <path class="cls-1" d="m61.11,27.67c-2.47.81-4.43,3.27-6.3,5.02-1.96,1.84-3.99,3.61-6.05,5.35-3.87,3.27-8.1,6.16-12.73,8.25-4.68,2.11-10.45,3.7-15.55,2.34-4.18-1.11-7.47-4.53-8.51-8.72-.66-2.69-.35-5.65.39-8.29.34-1.19.74-2.31,1.27-3.4.59-1.22,1.18-2.22,1.16-3.62-.03-1.84-1.99-2.92-3.58-2.05-2.28,1.24-3.18,4.5-3.83,6.87-.77,2.79-1.21,5.87-.99,8.76.44,5.78,3.69,11.12,8.79,13.97,5.74,3.21,12.71,2.51,18.73.51,5.61-1.86,10.68-4.88,15.34-8.49,2.65-2.05,5.13-4.27,7.49-6.64,1.17-1.17,2.34-2.35,3.43-3.59,1.15-1.32,2.45-2.58,2.92-4.31.3-1.13-.79-2.36-1.97-1.97h0Z"/>
      <path class="cls-1" d="m14.31,51.3c1.43,2.18,2.83,4.38,4.23,6.59s2.96,4.14,4.45,6.18c3.05,4.17,6.29,8.22,9.44,12.32,2.65,3.44,5.41,7.01,9.3,9.13,3.63,1.98,7.88,2.69,11.98,2.29,7.33-.73,14.46-4.29,18.73-10.43,2.52-3.63,3.53-8.05,2.98-12.42-.45-3.61-1.51-7.16-2.44-10.67-1.13-4.28-2.35-8.54-3.64-12.77-.74-2.43-1.5-4.86-2.29-7.28-.86-2.66-1.51-5.67-3.11-7.99-.92-1.33-3.42-1-3.3.89.15,2.41,1.1,4.64,1.85,6.92.67,2.05,1.33,4.11,1.97,6.17,1.15,3.71,2.25,7.45,3.29,11.19.84,3.03,1.64,6.07,2.4,9.12.98,3.94,1.76,7.86.18,11.78-2.5,6.16-9.19,10-15.5,11.07-.17.03-.94.14-.7.11.26-.03-.42.05-.53.06-.77.08-1.54.12-2.31.12-1.91,0-3.78-.31-5.59-.94-3.97-1.38-6.67-4.63-9.28-7.75-3.4-4.05-6.75-8.15-10.16-12.19-1.74-2.06-3.48-4.17-5.36-6.11s-3.94-3.94-5.87-5.94c-.35-.37-1,.11-.72.55h0Z"/>
      <path class="cls-1" d="m24.66,22.99c-.27-.06-.55-.12-.83-.13h-.1c.3.04.23.03-.2-.03-.1-.01-.21-.02-.31-.03-.7-.01-1.4.31-2.01.62-1.24.63-2.17,1.64-2.99,2.74-1.56,2.11-2.33,4.7-1.94,7.31.23,1.56,1.15,2.96,2.66,3.53s3.01.07,4.31-.64c2.38-1.31,4.36-3.91,4.86-6.6.26-1.42.11-2.79-.5-4.1-.56-1.19-1.6-2.26-2.99-2.24-.87.01-1.11,1.11-.43,1.57.29.2.56.48.72.73.11.17.21.35.3.52.04.07.07.13.1.2.13.24-.05-.17.05.11.26.73.35,1.43.24,2.04-.05.25-.11.49-.19.73-.03.1-.07.19-.1.29-.17.46.05-.1-.07.16-.1.21-.21.41-.33.61-.08.13-.17.26-.26.39-.02.03-.28.37-.14.2-.33.41-.7.78-1.09,1.13-.08.07-.16.14-.24.2-.39.31.14-.1-.1.07s-.46.31-.7.44c-.21.12-.43.23-.66.33.4-.17-.27.08-.37.11-.18.05-.36.09-.55.14-.34.08.03.01.08,0-.17.05-.37,0-.54.03-.24.03.38.14-.05-.01.33.11.07.06,0,0,.48.44,0-.02,0-.03.02-.02.25.42.07.09-.01-.02-.18-.33-.18-.33.03,0,.16.47.06.12-.07-.23-.14-.46-.19-.7-.1-.51.02.34,0-.06,0-.13-.02-.26-.03-.39,0-.17,0-.34,0-.51,0-.14.02-.29.03-.43.03-.4-.08.36.01-.07.11-.49.24-.95.4-1.42.03-.08.14-.32-.02.03.05-.11.1-.23.16-.34.12-.25.25-.49.39-.73.15-.26.31-.51.49-.75.06-.08.11-.16.17-.24-.26.34.07-.07.13-.14.34-.39.72-.77,1.11-1.12.06-.06.13-.11.19-.17.06-.05.13-.11.19-.16-.16.12-.19.15-.09.08.19-.08.36-.24.55-.34s.37-.21.54-.34c-.21.14-.14.08-.05.03.06-.02.13-.03.19-.04-.18.02-.2.03-.06.02,1.38-.04,1.78-2.16.34-2.49Z"/>
      <path class="cls-1" d="m59.13,49.45c-2.35-1.61-6.04-.05-8.18,1.31-2.37,1.5-4.27,3.84-5.52,6.33s-1.98,5.15-2.24,7.9c-.21,2.27-.29,4.7.41,6.89.91,2.83,3.22,4.75,6.24,4.88,3.31.15,6.23-1.86,8.19-4.37,2.56-3.27,3.5-7.39,4.12-11.42.37-2.4.63-4.85.33-7.27-.25-1.99-.97-4.64-3.21-5.14-1.28-.29-2.15,1.2-1.26,2.17,1.93,2.11,1.66,5.38,1.32,8.18-.31,2.49-.81,5.04-1.62,7.43-.84,2.5-2.47,5.12-4.86,6.41-1.81.97-4.45,1.17-5.71-.74-1.03-1.56-1.02-3.72-.97-5.52.06-1.98.33-3.9.94-5.79.77-2.42,2.06-4.78,3.84-6.61.89-.9,1.89-1.71,2.99-2.36,1.47-.86,3.11-1.95,4.88-1.51.48.12.71-.5.32-.77Z"/>
      <path class="cls-1" d="m55.39,58.03c-.84.27-1.25.96-1.76,1.63l.43-.43c-.65.5-.99,1.2-1.41,1.9-.36.6-.71,1.21-1.07,1.82s-.65,1.25-.96,1.88c-.11.22-.26.47-.32.7l-.06.43c0,.17-.01.21,0,.12,0-.09,0-.05-.03.14l-.05.25c-.05.25-.1.49-.1.75,0,.47.3.92.73,1.09.48.19.91.06,1.3-.25.32-.25.57-.62.86-.91.37-.37.56-.87.79-1.33.4-.81.74-1.64,1.08-2.47.3-.75.63-1.5.9-2.26.14-.38.18-.79.29-1.18.14-.52.19-1.02,0-1.53-.09-.26-.36-.46-.64-.37h0Z"/>
      <path class="cls-1" d="m19.97,30.88c-1.09-2.26-2.64-4.41-4.17-6.4s-3.05-4.01-4.62-5.98-3.2-4.03-4.8-6.05c-1.27-1.6-2.84-3.37-3.24-5.44-.21-1.1.33-3.8,1.85-3.87,1.17-.05,2.53,1.97,3.15,2.74,2.84,3.51,5.42,7.26,8.11,10.88,1.15,1.55,2.31,3.09,3.46,4.64,1.03,1.38,1.91,2.82,3.52,3.57.82.39,1.56-.24,1.44-1.1-.25-1.73-1.35-2.98-2.36-4.34-1.23-1.67-2.47-3.35-3.7-5.02-1.48-2-2.96-4.01-4.45-6-1.57-2.09-3.07-4.3-4.89-6.19C8.09,1.1,6.58-.09,4.79,0,2.69.12,1.16,2.02.45,3.84c-1.89,4.9,2.6,9.19,5.42,12.63,2.1,2.56,4.2,5.12,6.35,7.65s4.36,5.27,7,7.34c.42.33.99-.07.74-.57h0Z"/>
    </g>
  </g>
</svg>