<?xml version="1.0" encoding="UTF-8"?>
<svg id="Capa_2" data-name="Capa 2" xmlns="http://www.w3.org/2000/svg" viewBox="0 0 50.09 40.65">
  <defs>
    <style>
      .cls-1 {
        fill: #fff;
      }
    </style>
  </defs>
  <g id="Capa_3" data-name="Capa 3">
    <g>
      <path class="cls-1" d="m22.93,18.22c.78.6,1.6,1.13,2.45,1.57.19.1.43.07.6-.08.21-.2.22-.53.02-.73-.57-.6-1.07-1.24-1.53-1.91,1.94-1.54,3.73-3.26,5.32-5.16.75.09,3.05.37,3.05.37.52.08.75-.69.26-.9l-2.1-.99s0,0,0,0c2.4-3.21,2.12-5.38,1.46-6.64-.86-1.65-2.68-2.25-3.46-2.5-3.52-1.15-6.82.25-8.47,1.19,0,0,0,0,0,0C17.74-.23,13.04-.96,9.87,1.51c-2.56,2.02-3.53,5.56-2.85,8.69C4.51,11.96.57,15.34.05,19.67c-.11.93-.1,2.26.62,3.35.6.92,1.84,1.91,4.34,1.91.54,0,1.15-.05,1.81-.15,1.44-.22,2.85-.54,4.25-.92.16.78.44,2.1.44,2.1.11.65,1.13.6,1.18-.06l.26-2.61c3.57-1.19,6.95-2.9,9.99-5.06Zm-16.41,4.58c-1.49.23-3.43.26-4.19-.89-.38-.57-.37-1.4-.29-2,.41-3.39,3.68-6.27,5.67-7.74.46.93,1.09,1.78,1.9,2.46,1.04.86,2.32-.71,1.26-1.55-2.41-1.83-2.96-5.76-1.48-8.54,2.01-4.13,7.82-3.88,10.73-.89.02.05.02.09.05.14.09.16.23.27.38.36.26.32.49.66.68,1.04,2.95,5.45-4.02,8.97-8.66,8.77-.36-.01-.38.54-.02.56,5.37.41,12.77-3.59,9.67-9.82-.11-.24-.24-.47-.38-.69,1.44-.76,3.96-1.73,6.56-.88.59.19,1.82.6,2.3,1.53.71,1.36-.31,3.2-1.29,4.52-5.42,7.25-13.76,12.21-22.89,13.62Z"/>
      <path class="cls-1" d="m49.85,28.78c-5.6-6.52-10.34-11.78-12.06-13.4-.49-.46-1.65-1.55-3.14-1.33-.93.14-1.6.77-2.05,1.18-4.49,4.17-8.79,8.66-12.77,13.33-.36.42-.31,1.05.11,1.41.42.36,1.05.31,1.41-.11,3.93-4.61,8.17-9.04,12.61-13.17.35-.33.69-.62.99-.67.53-.08,1.19.54,1.47.8,1.18,1.11,4.46,4.67,9.37,10.31-.36,2.46-.65,4.93-.88,7.41-.08,3.03-.99,3.79-3.99,3.69,0,0-1.03.03-1.92.05.09-1.59-.07-3.2-.45-4.74-.36-2.73-2.77-4.35-5.43-3.15-.46.2-.96.68-1.18,1.12-1.1,2.24-1.25,4.64-1.12,7.06-.98.01-1.94-.01-2.87-.13-1.11-.17-1.58-.79-1.73-1.82-.45-3.05-.96-6.11-1.55-9.13-.13-.65-1.11-.52-1.07.14.16,2.64.38,5.27.64,7.9.11,1.52.29,3.35,1.75,4.27,1.33.87,2.99.76,4.4.83,1.77.02,3.54-.07,5.31-.1,2.02-.17,6.27,0,8.21-.61,1.09-.34,2.06-1.32,2.4-2.39.38-1.07.3-2.06.35-2.9.07-2.14.08-4.28.06-6.43.52.6,1.06,1.22,1.62,1.87.2.23.48.35.76.35.23,0,.46-.08.65-.24.42-.36.47-.99.11-1.41Zm-14.18,9.61c-.96.02-1.96.08-2.96.13-.45-2.06-.42-4.43.43-6.32.29-.59.91-.82,1.54-.89,1.64-.15,2.47.93,2.79,2.53.44,1.46.56,2.97.49,4.48-1.12.03-2.29.07-2.29.07Z"/>
    </g>
  </g>
</svg>