<?xml version="1.0" encoding="UTF-8"?>
<svg id="Capa_2" data-name="Capa 2" xmlns="http://www.w3.org/2000/svg" viewBox="0 0 47.71 36.27">
  <defs>
    <style>
      .cls-1 {
        fill: #8b737b;
      }

      .cls-2 {
        fill: #fff;
      }

      .cls-3 {
        stroke-width: 2.06px;
      }

      .cls-3, .cls-4, .cls-5 {
        fill: #fff5ff;
        stroke: #c6c5ed;
        stroke-miterlimit: 10;
      }

      .cls-4 {
        stroke-width: 1.89px;
      }

      .cls-5 {
        stroke-width: 1.26px;
      }
    </style>
  </defs>
  <g id="Capa_4" data-name="Capa 4">
    <g>
      <ellipse class="cls-3" cx="19.83" cy="29.4" rx="18.16" ry="5.84"/>
      <path class="cls-2" d="m39.08,8.82c1.17-1.07,1.81-2.63,3.44-3.16,1.47-.47,2.96.18,3.19,1.78.24,1.68-.17,3.77-1.06,5.2s-2.2,2.33-3.58,3.1c-1.53.85-3.17,1.48-4.74,2.25-1.43.7-3.05,1.52-4.05,2.8s-1.09,3.33.38,4.37c1.32.93,3.2.72,4.66.28,1.65-.49,3.91-1.59,3.81-3.63-.09-1.73-2.54-3.02-3.54-1.24-.39.7.11,1.54.9,1.57-.02,0-.1-.2-.19-.2-.15.01-.68.44-.83.51-.67.31-1.43.55-2.16.64-.33.04-1.2.17-1.26-.3-.07-.58.96-1.22,1.33-1.48,2.49-1.76,5.48-2.64,7.95-4.43s3.99-4.13,4.32-7.24c.28-2.61-.37-5.5-3.38-5.94-2.71-.39-5.78,2.03-5.82,4.84,0,.33.4.47.62.26h0Z"/>
      <path class="cls-4" d="m38.79,8.39c0,7.47-8.47,20.02-18.92,20.02S.95,15.86.95,8.39,19.12,1.55,19.87,1.37c1.17-.28,18.92-.45,18.92,7.02Z"/>
      <ellipse class="cls-5" cx="19.83" cy="6.64" rx="18.92" ry="6.01"/>
      <ellipse class="cls-1" cx="19.87" cy="7.33" rx="17.49" ry="4.7"/>
    </g>
  </g>
</svg>