<?xml version="1.0" encoding="UTF-8"?>
<svg id="Capa_2" data-name="Capa 2" xmlns="http://www.w3.org/2000/svg" viewBox="0 0 89.39 83.38">
  <defs>
    <style>
      .cls-1 {
        fill: #fff;
      }
    </style>
  </defs>
  <g id="Capa_6" data-name="Capa 6">
    <g>
      <path class="cls-1" d="m38.34,71.47c.13-2.82-2.78-4.49-4.95-5.59-2.75-1.4-5.62-2.49-8.56-3.43-5.2-1.66-10.52-2.96-15.88-3.99-1.14-.22-2.29-.38-3.42-.62-1.07-.23-2.31-.74-1.82-2.02.53-1.36,1.91-2.37,3.15-3.03,5.66-3.05,12.36-4.06,18.72-3.48,7.14.65,14.15,3.53,19.47,8.36.59.53,1.61.8,2.31.3,10.34-7.27,24.6-8.83,36.07-3.3.57.27,1.31.55,1.75,1.02.26.28.14.17-.22.52-.21.2.31-.19-.02.01-.1.06-.2.12-.3.18-.25.15-.52.29-.78.42-.86.42-.91.43-1.71.74-.85.33-1.71.65-2.57.95-4.25,1.5-8.57,2.83-12.82,4.35-3.62,1.29-7.59,2.56-10.74,4.82-1.14.82-2.29,1.83-2.62,3.26-.57,2.46,1.65,4.16,3.41,5.4.8.57,1.58,1.04,2.27,1.71.18.17.33.21.19.21.21.01-.07.17,0-.23.04-.25-.03-.13.17-.48-.22.37.31-.32.12-.12-.35.36.34-.11-.03.04-.2.08-.39.22-.58.31.49-.23-.42.13-.63.2-3.82,1.14-8.02,1.19-11.99,1.34s-8.5.46-12.2-.5c-.18-.05-.35-.1-.53-.15-.08-.02-.5-.19-.32-.11s-.18-.1-.24-.14-.11-.08-.17-.11c.26.13.05.12.09.06.05-.1.06.17.02.02.1.37.05.04.12.35.08.38-.19.2,0,.2,0,0-.21.2,0,.01.1-.09.18-.19.27-.29,1.51-1.46,3.6-2.37,4.76-4.17.6-.94.77-1.94.7-3.01-.12-2.02-3.28-2.03-3.16,0,.04.62-.92,1.41-1.42,1.85-.85.76-1.81,1.39-2.7,2.11-1.63,1.31-3,3.46-1.35,5.36,1.13,1.31,3.03,1.76,4.66,2.04,2.29.39,4.79.54,7.22.55,4.53,0,9.14-.21,13.63-.84,2.44-.34,6.83-.82,7.48-3.84.57-2.65-2.22-4.34-4.04-5.61-.39-.27-.78-.53-1.13-.82-.18-.15-.35-.3-.5-.47-.21-.22-.21-.24-.22-.24.07-.04-.1.1-.02-.09-.03.07.03.24.01.33-.08.36.06-.11.06-.13,0,.02-.2.39-.1.25.01-.02.08-.12.08-.14,0-.02.08-.12.09-.14.16-.17-.36.37-.05.08.22-.2.42-.41.65-.6.06-.05-.23.15.09-.06.19-.13.37-.25.56-.38.76-.48,1.55-.89,2.36-1.28,1.96-.94,3.93-1.69,6.02-2.44,4.54-1.64,9.16-3.05,13.71-4.67,3.15-1.12,9.86-2.95,8.42-7.63-.53-1.73-2.19-2.74-3.73-3.48s-3.25-1.44-4.94-1.98c-3.34-1.08-6.85-1.67-10.35-1.83-7.01-.32-14.13,1.21-20.33,4.5-1.53.81-2.99,1.74-4.39,2.77l2.31.3c-10.61-9.27-26.32-12.09-39.41-6.71-3.2,1.31-6.83,3.04-8.06,6.55s1.42,5.99,4.55,6.61c4.1.81,8.19,1.63,12.24,2.67,3.66.93,7.25,2.03,10.8,3.32,1.69.61,3.36,1.24,4.97,2.05.97.49,2.99,1.18,3.38,2.32s2.06.96,2.12-.29Z"/>
      <path class="cls-1" d="m6.76,48.69c-.76-1.96-.51-4.78-.03-6.78s1.31-3.96,2.5-5.7c2.19-3.21,5.56-5.68,9.25-6.86,7.54-2.43,16.27.81,20.34,7.65,1.14,1.92,1.9,4.1,2.01,6.34.06,1.19-.07,2.3-.33,3.45s-.79,2.29-.84,3.52,1.32,1.84,2.3,1.32c2.32-1.22,2.96-4.55,3.07-6.94.11-2.66-.52-5.3-1.58-7.73-1.93-4.42-5.69-8.08-10.02-10.17-4.54-2.19-9.65-2.8-14.53-1.43-4.56,1.28-8.63,4.11-11.46,7.89-1.68,2.23-2.99,4.91-3.45,7.68-.24,1.45-.31,2.92-.05,4.37s.95,2.55,1.68,3.87c.34.6,1.4.19,1.14-.48h0Z"/>
      <path class="cls-1" d="m41.45,36.27c1.34-1.25,2.49-2.67,3.84-3.92s2.85-2.3,4.44-3.23c3.09-1.81,6.63-2.99,10.22-3.16,6.36-.31,13.67,2.59,15.74,9.11.69,2.18.76,4.48.52,6.74-.13,1.21-.38,2.4-.67,3.58-.32,1.33-.57,2.37.36,3.51.32.39,1.01.54,1.47.39,2.36-.77,2.47-4.52,2.74-6.61.3-2.4.28-4.84-.23-7.22-.89-4.16-3.51-7.63-7.06-9.9-6.93-4.44-15.98-3.91-23.1-.23-3.99,2.06-8.42,5.58-9.94,9.96-.35.99.99,1.61,1.67.97h0Z"/>
      <path class="cls-1" d="m27.65,26.34c2.76-3.39,5.61-7.01,9.26-9.48,1.69-1.15,4.41-2.94,6.56-2.26s2.57,3.44,2.95,5.27c.32,1.58.34,3.25.09,4.85-.2,1.31-.6,2.47-.48,3.81.05.5.62.8,1.01.42.97-.94,1.29-2.04,1.52-3.35.29-1.63.38-3.28.18-4.92-.29-2.44-1.07-5.52-3.1-7.11-2.19-1.72-4.93-.83-7.16.34-2.55,1.34-4.78,3.27-6.69,5.42s-3.25,4.37-4.34,6.88c-.05.12.1.27.2.15h0Z"/>
      <path class="cls-1" d="m44.36,14.15c.94-.46,1.65-1.31,2.5-1.92.78-.55,1.67-1.08,2.57-1.39,1.59-.55,3.31-.52,4.73.47.58.4,1.11,1.02,1.45,1.55.22.33.41.68.59,1.04.07.15.14.29.21.44.11.25-.08-.21.02.03.04.09.07.18.11.27.58,1.51.92,3.08.85,4.71-.05,1.06-.32,2.07-.59,3.11-.23.89-.76,2.11-.19,2.96.27.41.74.77,1.26.72,2.45-.2,2.96-4.19,3.07-6.05.13-2.26-.4-4.46-1.29-6.53-.79-1.84-1.96-3.53-3.63-4.68-1.94-1.34-4.49-1.58-6.71-.87-1.31.42-2.54,1.1-3.52,2.07s-2.05,2.28-2.03,3.7c0,.32.34.49.61.35h0Z"/>
      <path class="cls-1" d="m67.39,23.66c2.03-3.99,3.96-8.03,5.99-12.01,1.01-1.97,2.05-3.93,3.18-5.82.62-1.04,2.2-3.6,3.75-2.86s.73,3.25.11,4.34c-.45.78-1.05,1.39-1.63,2.07-1.51,1.8-2.83,3.75-4.1,5.71-1.04,1.61-2.05,3.25-3.01,4.91-1.09,1.88-2.7,4.06-2.35,6.35.07.47.64.55.99.4,2.09-.91,3.15-3.67,4.23-5.53.97-1.68,1.95-3.35,2.99-4.98,1.27-2.01,2.6-3.94,4.14-5.74,2.17-2.54,3.83-7.52.31-9.77-4.4-2.81-7.53,3.37-9.07,6.43-1.28,2.54-2.49,5.13-3.54,7.77-1.1,2.79-1.92,5.57-2.57,8.5-.07.33.4.57.57.24h0Z"/>
      <path class="cls-1" d="m53.09,40.32c.3.01.57-.05.83-.19.27-.09.5-.24.69-.45.21-.2.36-.43.45-.69.14-.26.2-.53.19-.83l-.08-.57c-.1-.37-.29-.68-.55-.95l-.44-.34c-.34-.2-.7-.29-1.09-.29-.3-.01-.57.05-.83.19-.27.09-.5.24-.69.45-.21.2-.36.43-.45.69-.14.26-.2.53-.19.83l.08.57c.1.37.29.68.55.95l.44.34c.34.2.7.29,1.09.29h0Z"/>
      <path class="cls-1" d="m63.3,33.49c1.87,0,1.87-2.91,0-2.91s-1.87,2.91,0,2.91h0Z"/>
      <path class="cls-1" d="m62.13,41.31c.14.02.27.04.41.06l-.41-.11c.35.25.88.17,1.29.12s.78-.11,1.15-.24c.81-.3,1.51-.71,2.19-1.24s1.23-1.34,1.51-2.14c.14-.4.25-.83.22-1.25-.03-.33-.05-.67-.21-.97-.07-.1-.14-.19-.22-.28.13.18.16.21.1.11-.06-.12-.15-.22-.23-.32-.23-.28-.8-.36-1.1-.14-.14.1-.27.22-.4.33l.5-.29c-.2.08-.32.13-.48.25s-.28.29-.4.46c-.06.09-.22.26.06-.06-.1.12-.24.28-.31.39-.15.25-.28.5-.44.75s-.28.51-.44.75c-.05.07-.09.13-.14.2-.07.09-.03.04.13-.17-.09.11-.18.22-.26.34-.08.12-.18.24-.25.37.23-.36.13-.16.05-.07-.04.05-.09.11-.14.16-.1.11-.2.22-.31.33s-.22.2-.33.3c-.08.07-.24.14.03-.02-.06.03-.11.08-.17.12-.25.17-.49.34-.76.49-.12.06-.24.12-.36.18.23-.11-.14.06-.19.08-.17.09-.28.23-.39.38l.29-.29c-.08.04-.08.04,0,0-.3.12-.57.37-.55.72.01.3.22.67.55.72h0Z"/>
    </g>
  </g>
</svg>