<?xml version="1.0" encoding="UTF-8"?>
<svg id="Capa_2" data-name="Capa 2" xmlns="http://www.w3.org/2000/svg" viewBox="0 0 52.46 52.46">
  <defs>
    <style>
      .cls-1 {
        fill: #fff;
      }

      .cls-2 {
        fill: #d5da97;
      }
    </style>
  </defs>
  <g id="Capa_5" data-name="Capa 5">
    <g>
      <rect class="cls-2" width="52.46" height="52.46" rx="12" ry="12"/>
      <path class="cls-1" d="m42.71,37.09c-.42-1.47-.97-2.89-1.65-4.26.83-2.03,1.29-4.25,1.29-6.58,0-9.64-7.82-17.46-17.46-17.46S7.43,16.6,7.43,26.24s7.82,17.46,17.46,17.46c3.5,0,6.74-1.04,9.47-2.81,2.18,1.28,5.72,1.81,7.39,1.84.32,0,.68,0,.93-.21.22-.18.32-.47.38-.75.36-1.55.07-3.17-.36-4.7Z"/>
      <path class="cls-2" d="m21.31,22.21c-.38,1.89.88,3.68,2.11,5.16.98,1.17,2.25,2.42,3.76,2.21,1.31-.19,2.25-1.44,3.54-1.73,1.24-.28,2.57.46,3.19,1.56.63,1.1.63,2.48.23,3.69-.86,2.62-3.65,4.46-6.4,4.23-1.45-.12-2.81-.75-4.05-1.51-4.84-2.97-8.58-8.6-9.01-14.33-.16-2.17.35-4.26,2.71-4.81,1.37-.32,2.91.03,3.83,1.14,1.24,1.51.41,2.76.08,4.41Z"/>
    </g>
  </g>
</svg>