<?xml version="1.0" encoding="UTF-8"?>
<svg id="Capa_2" data-name="Capa 2" xmlns="http://www.w3.org/2000/svg" viewBox="0 0 101.64 84.3">
  <defs>
    <style>
      .cls-1 {
        fill: #fff;
      }
    </style>
  </defs>
  <g id="Capa_6" data-name="Capa 6">
    <g>
      <path class="cls-1" d="m47.56,25.19c-.95-.6-1.87-.63-2.95-.82s-2.24-.54-3.24-1.06c-1.84-.95-3.45-2.47-4.12-4.47-1.43-4.26.85-8.51,3.46-11.87,1.08-1.4,2.76-3.31,4.75-2.98s3.47,2.48,4.64,3.98c2.46,3.13,4.7,6.69,3.04,10.76-.85,2.08-2.51,3.86-4.54,4.82-1.21.57-2.54.79-3.87.71-1.14-.07-2.08-.24-3.22-.04-.92.16-1,1.32-.5,1.91,1.8,2.14,5.58,1.85,8,1.06,2.77-.9,5.1-2.77,6.71-5.18s2.36-5.56,1.8-8.54c-.5-2.67-2.01-5-3.64-7.12s-3.42-4.61-6.05-5.77c-2.95-1.3-5.95-.32-8.27,1.74s-4.18,4.99-5.4,7.8c-1.1,2.55-1.55,5.15-1.1,7.91.54,3.34,2.59,6.33,5.62,7.87,2.43,1.24,6.78,2.5,9.04.46.37-.34.24-.93-.15-1.18h0Z"/>
      <path class="cls-1" d="m34.61,21.78c-2.22.55-4.32,1.7-6.31,2.81-2.12,1.18-4.19,2.44-6.13,3.89-3.77,2.81-7.12,6.13-9.48,10.23-.52.91.13,2.34,1.28,2.23,17.07-1.52,34.08-4.26,50.74-8.25,4.74-1.13,9.48-2.26,14.2-3.49,1.68-.44,2.29-3.2.52-3.99-3.9-1.73-7.87-3.08-12.04-4-1.97-.44-3.96-.78-5.97-1.05-2.24-.3-4.55-.73-6.75-.06-2.03.61-1.76,3.14,0,3.86,1.91.78,4.07.72,6.11.97,1.87.23,3.73.56,5.57.95,3.86.83,7.69,1.97,11.4,3.32v-4.21c-16.03,5.37-32.69,9.01-49.42,11.33-4.77.66-9.56,1.2-14.36,1.65l1.28,2.23c2.22-3.89,5.42-7.05,9.02-9.67,1.8-1.31,3.65-2.57,5.54-3.75s3.88-2.28,5.5-3.8c.54-.51-.03-1.37-.7-1.2h0Z"/>
      <path class="cls-1" d="m79.96,52.55c.72-.98.71-2.4.76-3.58s.07-2.32.1-3.47c.06-2.04.08-4.08.09-6.12s.02-3.98,0-5.97c0-1.17-.04-2.33-.07-3.5-.03-1.33.23-2.98-.59-4.09-.76-1.03-2.11-1.09-2.86,0s-.5,2.58-.5,3.87c0,1.17,0,2.35.02,3.52.03,2.05.08,4.11.1,6.16s.04,3.95.09,5.93c.03,1.15.04,2.3.08,3.45.04,1.24-.01,2.75.74,3.79.54.75,1.48.74,2.02,0h0Z"/>
      <path class="cls-1" d="m15.58,36.24c-2.22.52-2.86,2.75-3,4.79-.2,2.8.04,5.66.23,8.46s.47,5.82.8,8.72c.3,2.59.36,5.5,1.42,7.91,2.16,4.94,8.58,4.59,13.09,4.78,5.81.25,11.64.23,17.44-.14,3.23-.2,6.44-.5,9.65-.88s6.9-.54,9.95-1.86c1.65-.71.62-2.98-.84-3.09-2.61-.19-5.32.54-7.91.85s-5.14.57-7.71.76c-5.23.4-10.49.6-15.74.55-2.67-.02-5.33-.11-7.99-.26-1.77-.1-3.97-.03-5.49-1.1-1.68-1.18-1.65-4.04-1.92-5.87-.37-2.57-.68-5.14-.94-7.73-.52-5.16-1.16-10.4-.59-15.57.03-.24-.25-.39-.45-.35h0Z"/>
      <path class="cls-1" d="m21.17,55.32c2.09.88,4.43.84,6.67.94s4.66.07,6.99-.01c4.48-.15,8.95-.53,13.38-1.19s8.88-1.56,13.25-2.68c2.25-.58,4.52-1.18,6.72-1.93.99-.34,1.97-.75,2.94-1.16,1.14-.49,2.05-1.3,3.12-1.93.59-.35.18-1.17-.45-1.06-1.17.22-2.34.16-3.49.46s-2.25.59-3.37.93c-2.08.63-4.17,1.25-6.27,1.8-4.29,1.11-8.63,2-13.01,2.67s-8.84,1.16-13.29,1.4c-2.17.12-4.35.16-6.53.22s-4.51-.14-6.67.49c-.56.16-.47.86,0,1.05h0Z"/>
      <path class="cls-1" d="m14.86,60.53c-4.28-.11-8.78,1.36-11.94,4.31-2.61,2.44-3.77,5.81-2.21,9.18,1.65,3.58,4.75,5.57,8.44,6.63,5.63,1.6,11.7,2.23,17.5,2.83,11.99,1.23,24.11,1.1,36.06-.5,10.38-1.38,21.48-3.29,30.41-9.11,2.39-1.56,4.93-3.41,6.66-5.71s2.72-5.45.92-7.93c-1.69-2.34-5.15-3.13-7.86-3.26-1.58-.08-4.06-.32-5.41.73l.69-.28s-.08,0-.12,0c-1.23.11-1.24,2.05,0,1.94.17-.02-.63-.15-.06,0,.18.05.38.08.56.12.78.17,1.57.24,2.35.4,1.92.41,4.15,1.08,5.81,2.16s-.09,2.83-1.12,3.83c-1.53,1.5-3.2,2.81-5.02,3.96-7.8,4.92-17.05,6.86-26.04,8.28-10.41,1.65-21.04,2.36-31.58,2.08-5.29-.14-10.57-.51-15.83-1.13-2.53-.3-5.11-.58-7.58-1.22-1.43-.37-3.06-.91-4.12-1.81-1.4-1.19-2.79-2.74-3.21-4.57-.36-1.56.23-3.11,1.12-4.39,2.61-3.75,7.39-5.27,11.63-6.21.18-.04.13-.3-.04-.31h0Z"/>
      <path class="cls-1" d="m85.74,51.65c-3.93-1.99-9.47-.14-12.99,1.93-3.87,2.28-7.42,6.52-8.19,11.04-.4,2.34-.02,4.87,2.01,6.37,2.19,1.61,5.36,1.48,7.91,1.05,5.07-.86,9.51-4.16,12.57-8.19,1.83-2.4,3.34-5.44,2.72-8.54-.56-2.79-2.91-5.25-5.9-4.55-1.21.28-1.01,1.89,0,2.26,1.49.55,2.66,2.12,2.65,3.71-.01,2.07-1.31,4.03-2.58,5.58-2.45,3-5.77,5.38-9.58,6.23-1.6.36-3.94.65-5.45-.17-1.39-.76-1.15-2.71-.79-3.99.93-3.35,3.41-6.16,6.16-8.18,1.63-1.2,3.45-2.13,5.39-2.7s4-.66,5.98-1.1c.33-.07.4-.59.1-.74h0Z"/>
      <path class="cls-1" d="m82.71,56.71c-1.1-.19-2.12.18-3.08.71s-1.87,1.04-2.75,1.64c-.92.63-1.82,1.3-2.7,1.99-.23.18-.46.36-.68.54-.09.07-.19.14-.27.22l-.26.34c.08-.08.08-.07,0,0-.4.47-.82.9-1.15,1.43-.75,1.22.72,2.54,1.9,1.9.45-.24.85-.55,1.26-.87h-.1c.13-.05.27-.1.4-.16.19-.1.37-.29.53-.44.19-.18.38-.35.57-.53.77-.7,1.56-1.36,2.37-2.02.74-.6,1.46-1.21,2.21-1.78.88-.67,1.69-1.35,2.08-2.41.08-.22-.09-.54-.33-.58h0Z"/>
    </g>
  </g>
</svg>